<svg width="113" height="32" viewBox="0 0 113 32" fill="none" xmlns="http://www.w3.org/2000/svg">
<path d="M10.655 31.63C8.513 31.63 6.7 31.105 5.216 30.055C3.746 28.991 2.619 27.556 1.835 25.75C1.065 23.93 0.68 21.886 0.68 19.618C0.68 17.378 1.065 15.355 1.835 13.549C2.605 11.743 3.711 10.315 5.153 9.265C6.609 8.215 8.366 7.69 10.424 7.69C12.538 7.69 14.323 8.208 15.779 9.244C17.235 10.28 18.334 11.701 19.076 13.507C19.818 15.299 20.189 17.336 20.189 19.618C20.189 21.886 19.818 23.923 19.076 25.729C18.334 27.535 17.256 28.97 15.842 30.034C14.428 31.098 12.699 31.63 10.655 31.63ZM10.802 29.32C12.496 29.32 13.903 28.9 15.023 28.06C16.157 27.206 16.997 26.051 17.543 24.595C18.103 23.125 18.383 21.466 18.383 19.618C18.383 17.756 18.103 16.097 17.543 14.641C16.983 13.185 16.143 12.051 15.023 11.239C13.903 10.413 12.51 10 10.844 10C9.122 10 7.701 10.427 6.581 11.281C5.461 12.121 4.628 13.269 4.082 14.725C3.536 16.167 3.263 17.798 3.263 19.618C3.263 21.452 3.543 23.104 4.103 24.574C4.677 26.03 5.517 27.185 6.623 28.039C7.743 28.893 9.136 29.32 10.802 29.32ZM18.383 31V13.528H18.173V0.759999H20.588V31H18.383ZM26.8873 3.742V0.654999H29.3023V3.742H26.8873ZM26.8873 31V8.32H29.3023V31H26.8873ZM42.1658 31.63C40.4158 31.63 38.9598 31.322 37.7978 30.706C36.6498 30.09 35.7888 29.278 35.2148 28.27C34.6408 27.248 34.3538 26.142 34.3538 24.952C34.3538 23.664 34.6198 22.586 35.1518 21.718C35.6978 20.85 36.4188 20.15 37.3148 19.618C38.2248 19.086 39.2258 18.687 40.3178 18.421C41.5638 18.141 42.9078 17.903 44.3498 17.707C45.7918 17.497 47.1638 17.315 48.4658 17.161C49.7818 17.007 50.8528 16.874 51.6788 16.762L50.7968 17.287C50.8528 14.837 50.3908 13.017 49.4108 11.827C48.4448 10.623 46.7368 10.021 44.2868 10.021C42.5648 10.021 41.1438 10.413 40.0238 11.197C38.9178 11.967 38.1408 13.164 37.6928 14.788L35.2148 14.095C35.7328 12.037 36.7758 10.455 38.3438 9.349C39.9118 8.243 41.9208 7.69 44.3708 7.69C46.4568 7.69 48.2068 8.096 49.6208 8.908C51.0488 9.72 52.0428 10.861 52.6028 12.331C52.8408 12.933 53.0018 13.64 53.0858 14.452C53.1698 15.25 53.2118 16.055 53.2118 16.867V31H51.0068V25.036L51.8258 25.246C51.1398 27.29 49.9428 28.865 48.2348 29.971C46.5268 31.077 44.5038 31.63 42.1658 31.63ZM42.2918 29.404C43.8318 29.404 45.1828 29.131 46.3448 28.585C47.5068 28.025 48.4448 27.248 49.1588 26.254C49.8868 25.246 50.3488 24.063 50.5448 22.705C50.6848 21.949 50.7618 21.13 50.7758 20.248C50.7898 19.366 50.7968 18.715 50.7968 18.295L51.8468 18.967C50.9368 19.079 49.8448 19.198 48.5708 19.324C47.3108 19.45 46.0228 19.604 44.7068 19.786C43.3908 19.968 42.2008 20.199 41.1368 20.479C40.4788 20.661 39.8138 20.927 39.1418 21.277C38.4838 21.613 37.9308 22.082 37.4828 22.684C37.0488 23.286 36.8318 24.049 36.8318 24.973C36.8318 25.659 36.9998 26.345 37.3358 27.031C37.6858 27.717 38.2598 28.284 39.0578 28.732C39.8558 29.18 40.9338 29.404 42.2918 29.404ZM59.0846 31V0.129999H61.4996V31H59.0846ZM78.2691 10.525V8.32H84.7791V10.525H78.2691ZM70.1631 31V6.199C70.1631 5.611 70.1911 5.051 70.2471 4.519C70.3171 3.987 70.4501 3.483 70.6461 3.007C70.8561 2.531 71.1501 2.083 71.5281 1.663C71.9201 1.243 72.3541 0.920999 72.8301 0.696998C73.3201 0.472998 73.8381 0.325998 74.3841 0.255998C74.9301 0.171999 75.5041 0.129999 76.1061 0.129999H79.0251V2.23H76.3161C75.0701 2.23 74.1321 2.531 73.5021 3.133C72.8861 3.735 72.5781 4.729 72.5781 6.115V31H70.1631ZM66.1311 10.525V8.32H79.0251V10.525H66.1311ZM84.4011 31V0.129999H86.8161V31H84.4011ZM102.421 31.63C100.167 31.63 98.2557 31.119 96.6877 30.097C95.1197 29.075 93.9227 27.661 93.0967 25.855C92.2707 24.049 91.8577 21.97 91.8577 19.618C91.8577 17.252 92.2777 15.173 93.1177 13.381C93.9577 11.575 95.1617 10.175 96.7297 9.181C98.3117 8.187 100.209 7.69 102.421 7.69C104.675 7.69 106.586 8.201 108.154 9.223C109.736 10.231 110.933 11.631 111.745 13.423C112.571 15.215 112.984 17.28 112.984 19.618C112.984 22.012 112.571 24.112 111.745 25.918C110.919 27.71 109.715 29.11 108.133 30.118C106.551 31.126 104.647 31.63 102.421 31.63ZM102.421 29.278C105.095 29.278 107.09 28.382 108.406 26.59C109.736 24.798 110.401 22.474 110.401 19.618C110.401 16.706 109.736 14.382 108.406 12.646C107.076 10.91 105.081 10.042 102.421 10.042C100.615 10.042 99.1237 10.455 97.9477 11.281C96.7717 12.093 95.8897 13.22 95.3017 14.662C94.7277 16.09 94.4407 17.742 94.4407 19.618C94.4407 22.53 95.1127 24.868 96.4567 26.632C97.8147 28.396 99.8027 29.278 102.421 29.278Z" fill="white"/>
</svg>
